<svg width="30" height="30" viewBox="0 0 30 30" fill="none" xmlns="http://www.w3.org/2000/svg">
<path d="M16.875 1.875C16.875 1.37772 16.6775 0.900805 16.3258 0.549175C15.9742 0.197544 15.4973 0 15 0C14.5027 0 14.0258 0.197544 13.6742 0.549175C13.3225 0.900805 13.125 1.37772 13.125 1.875V3.75C13.125 4.24728 13.3225 4.72419 13.6742 5.07582C14.0258 5.42746 14.5027 5.625 15 5.625C15.4973 5.625 15.9742 5.42746 16.3258 5.07582C16.6775 4.72419 16.875 4.24728 16.875 3.75V1.875ZM25.6069 7.04437C25.9484 6.69075 26.1374 6.21712 26.1331 5.7255C26.1289 5.23388 25.9317 4.7636 25.584 4.41596C25.2364 4.06832 24.7661 3.87113 24.2745 3.86686C23.7829 3.86259 23.3093 4.05158 22.9556 4.39312L21.63 5.71875C21.2885 6.07238 21.0995 6.54601 21.1037 7.03763C21.108 7.52925 21.3052 7.99952 21.6528 8.34716C22.0005 8.6948 22.4708 8.89199 22.9624 8.89626C23.454 8.90054 23.9276 8.71155 24.2812 8.37L25.6069 7.04437ZM30 15C30 15.4973 29.8025 15.9742 29.4508 16.3258C29.0992 16.6775 28.6223 16.875 28.125 16.875H26.25C25.7527 16.875 25.2758 16.6775 24.9242 16.3258C24.5725 15.9742 24.375 15.4973 24.375 15C24.375 14.5027 24.5725 14.0258 24.9242 13.6742C25.2758 13.3225 25.7527 13.125 26.25 13.125H28.125C28.6223 13.125 29.0992 13.3225 29.4508 13.6742C29.8025 14.0258 30 14.5027 30 15ZM5.71875 8.37C5.89171 8.54908 6.09861 8.69192 6.32737 8.79019C6.55612 8.88846 6.80216 8.94018 7.05112 8.94234C7.30008 8.94451 7.54698 8.89707 7.77741 8.80279C8.00784 8.70851 8.21719 8.56929 8.39324 8.39324C8.56929 8.21719 8.70851 8.00784 8.80279 7.77741C8.89707 7.54698 8.94451 7.30008 8.94234 7.05112C8.94018 6.80216 8.88846 6.55612 8.79019 6.32737C8.69192 6.09861 8.54908 5.89171 8.37 5.71875L7.04437 4.39312C6.69075 4.05158 6.21712 3.86259 5.7255 3.86686C5.23388 3.87113 4.7636 4.06832 4.41596 4.41596C4.06832 4.7636 3.87113 5.23388 3.86686 5.7255C3.86259 6.21712 4.05158 6.69075 4.39312 7.04437L5.71875 8.37ZM5.625 15C5.625 15.4973 5.42746 15.9742 5.07582 16.3258C4.72419 16.6775 4.24728 16.875 3.75 16.875H1.875C1.37772 16.875 0.900805 16.6775 0.549175 16.3258C0.197544 15.9742 0 15.4973 0 15C0 14.5027 0.197544 14.0258 0.549175 13.6742C0.900805 13.3225 1.37772 13.125 1.875 13.125H3.75C4.24728 13.125 4.72419 13.3225 5.07582 13.6742C5.42746 14.0258 5.625 14.5027 5.625 15ZM11.25 26.25V24.375H18.75V26.25C18.75 27.2446 18.3549 28.1984 17.6516 28.9016C16.9484 29.6049 15.9946 30 15 30C14.0054 30 13.0516 29.6049 12.3484 28.9016C11.6451 28.1984 11.25 27.2446 11.25 26.25ZM18.75 22.5C18.7781 21.8625 19.14 21.2887 19.6444 20.8894C20.8682 19.9242 21.7609 18.6018 22.1984 17.1059C22.6359 15.61 22.5966 14.015 22.0858 12.5425C21.575 11.07 20.6182 9.79321 19.3483 8.88959C18.0784 7.98597 16.5586 7.50042 15 7.50042C13.4414 7.50042 11.9216 7.98597 10.6517 8.88959C9.38181 9.79321 8.42498 11.07 7.9142 12.5425C7.40342 14.015 7.36406 15.61 7.80161 17.1059C8.23915 18.6018 9.13185 19.9242 10.3556 20.8894C10.8619 21.2887 11.2219 21.8625 11.2481 22.5H18.75Z" fill="#141414"/>
</svg>
