<svg width="16" height="24" viewBox="0 0 16 24" fill="none" xmlns="http://www.w3.org/2000/svg">
<path d="M0 3C0 2.20435 0.337142 1.44129 0.937258 0.87868C1.53737 0.316071 2.35131 0 3.2 0L12.8 0C13.6487 0 14.4626 0.316071 15.0627 0.87868C15.6629 1.44129 16 2.20435 16 3V21C16 21.7956 15.6629 22.5587 15.0627 23.1213C14.4626 23.6839 13.6487 24 12.8 24H3.2C2.35131 24 1.53737 23.6839 0.937258 23.1213C0.337142 22.5587 0 21.7956 0 21V3ZM9.6 19.5C9.6 19.1022 9.43143 18.7206 9.13137 18.4393C8.83131 18.158 8.42435 18 8 18C7.57565 18 7.16869 18.158 6.86863 18.4393C6.56857 18.7206 6.4 19.1022 6.4 19.5C6.4 19.8978 6.56857 20.2794 6.86863 20.5607C7.16869 20.842 7.57565 21 8 21C8.42435 21 8.83131 20.842 9.13137 20.5607C9.43143 20.2794 9.6 19.8978 9.6 19.5Z" fill="#FEFEFE"/>
</svg>
