<?xml version="1.0" encoding="UTF-8"?>
<svg id="Layer_1" data-name="Layer 1" xmlns="http://www.w3.org/2000/svg" viewBox="0 0 200 100">
  <defs>
    <style>
      .cls-1 {
        fill: #232323;
      }

      .cls-2 {
        fill: #53a95b;
      }

      .cls-3 {
        fill: #001f3f;
      }
    </style>
  </defs>
  <g>
    <path class="cls-3" d="m79.85,19.44c9.03-2.87,18.35-4.01,27.76-3.92,22.52.22,42.99,6.91,60.69,20.89,4.12,3.26,7.13,3.6,11.48,1.22,4.58-2.5,9.51-4.36,14.31-6.45.73-.32,1.45-.91,2.92-.44-7.04,10.83-13.97,21.5-21.05,32.41-1.95-2.76-3.68-5.42-5.61-7.92-15.93-20.6-36.86-32.52-62.69-35.89-9.31-1.22-18.56-.62-27.78.85,0-.25,0-.5-.01-.75Z"/>
    <path class="cls-3" d="m167.7,15.15c-.01-6.18,4.91-11.11,11.08-11.11,6.14,0,11.15,4.97,11.17,11.07.01,6.12-4.96,11.08-11.13,11.1-6.2.02-11.11-4.86-11.12-11.06Z"/>
  </g>
  <g>
    <path class="cls-2" d="m3,31.29c6.64,2.96,12.94,5.26,18.72,8.48,5.6,3.12,10.1,2.83,16.02,0,25.92-12.4,52.6-13.08,79.56-3.19.79.29,1.63.55,2.3,1.04.43.31,1.17.32,1.34,1.22-.86.71-1.75-.07-2.46-.25-34.31-8.6-64.36-.63-90.4,23.04-1.22,1.11-1.95,1.51-3.11-.09-7.09-9.68-14.25-19.3-21.39-28.95-.14-.19-.2-.44-.58-1.3Z"/>
    <path class="cls-2" d="m29.91,30.66c-6.18-.09-11.05-5.12-10.9-11.25.15-6.14,5.15-11.01,11.29-10.98,6.15.03,11.08,5.19,10.96,11.48-.12,6.17-5.05,10.84-11.35,10.75Z"/>
  </g>
  <g>
    <path class="cls-1" d="m26.56,95.53v-28.78h15.29c6.57,0,9.79,2.19,9.79,7.09,0,3.61-1.93,5.8-5.88,6.14v.56c4.85.17,7.22,3.14,7.22,7,0,5.03-3.22,7.99-10.27,7.99h-16.15Zm8.08-17.83h6.79c1.68,0,2.15-.39,2.15-1.85,0-1.55-.64-1.85-2.32-1.85h-6.61v3.69Zm0,10.57h7.77c1.55,0,2.36-.21,2.36-2.1s-.73-2.19-2.36-2.19h-7.77v4.3Z"/>
    <path class="cls-1" d="m55.08,95.53v-28.78h14.48c7.26,0,10.7,3.09,10.7,8.85,0,4.55-1.76,7.39-6.62,7.95v.39c2.92.77,4.08,2.62,5.2,5.07l3.01,6.53h-9.41l-2.83-5.97c-1.2-2.49-1.76-3.22-4.47-3.22h-1.98v9.19h-8.08Zm8.08-15.89h6.1c2.28,0,2.92-.64,2.92-2.92,0-2.1-.64-2.71-2.92-2.71h-6.1v5.63Z"/>
    <path class="cls-1" d="m82.74,95.53v-28.78h8.08v28.78h-8.08Z"/>
    <path class="cls-1" d="m94,95.53v-28.78h12.41c9.45,0,14.65,5.28,14.65,14.39s-5.2,14.39-14.65,14.39h-12.41Zm8.08-21.52v14.26h3.91c5.07,0,6.36-1.07,6.36-7.13s-1.29-7.13-6.36-7.13h-3.91Z"/>
    <path class="cls-1" d="m122.78,81.14c0-8.98,5.24-14.82,14.86-14.82,8.98,0,13.32,4.47,13.32,11.21v.3h-8.63v-.13c0-2.62-1.12-3.52-5.24-3.52s-5.63,1.16-5.63,6.96c0,6.4,1.55,7.39,6.36,7.39,4.17,0,5.24-.69,5.37-2.45h-6.79v-6.06h14.6v15.51h-7.56v-4.04h-.39c-.86,2.1-2.66,4.47-7.95,4.47-8.12,0-12.33-5.54-12.33-14.82Z"/>
    <path class="cls-1" d="m153.32,95.53v-28.78h23.24v7.26h-15.16v3.48h14.52v7.22h-14.52v3.57h15.16v7.26h-23.24Z"/>
  </g>
</svg>