<svg width="24" height="18" viewBox="0 0 24 18" fill="none" xmlns="http://www.w3.org/2000/svg">
<path fill-rule="evenodd" clip-rule="evenodd" d="M8.6064 10.6008L12.0024 12.9228L15.276 10.6644L22.614 17.904C22.4208 17.9664 22.2144 18 21.9996 18H2.0004C1.7364 18 1.4844 17.9484 1.2528 17.856L8.6064 10.6008ZM24 4.6512V15.9996C24 16.296 23.9352 16.5768 23.82 16.83L16.6272 9.7332L24 4.6512ZM1.13232e-06 4.7148L7.2504 9.6732L0.127201 16.7028C0.0428361 16.478 -0.00025468 16.2397 1.13232e-06 15.9996V4.7148ZM21.9996 0C23.1036 0 24 0.8952 24 2.0004V2.7036L11.9976 10.9776L1.13232e-06 2.772V2.0004C1.13232e-06 0.8964 0.895201 0 2.0004 0H21.9996Z" fill="#FEFEFE"/>
</svg>
