<svg width="18" height="24" viewBox="0 0 18 24" fill="none" xmlns="http://www.w3.org/2000/svg">
<path d="M9 24C9 24 0 13.044 0 8.4C-1.76116e-08 7.2969 0.232792 6.20459 0.685084 5.18546C1.13738 4.16632 1.80031 3.24032 2.63604 2.4603C3.47177 1.68029 4.46392 1.06155 5.55585 0.639412C6.64778 0.217272 7.8181 0 9 0C10.1819 0 11.3522 0.217272 12.4442 0.639412C13.5361 1.06155 14.5282 1.68029 15.364 2.4603C16.1997 3.24032 16.8626 4.16632 17.3149 5.18546C17.7672 6.20459 18 7.2969 18 8.4C18 13.044 9 24 9 24ZM9 10.8C9.68198 10.8 10.336 10.5471 10.8183 10.0971C11.3005 9.64697 11.5714 9.03652 11.5714 8.4C11.5714 7.76348 11.3005 7.15303 10.8183 6.70294C10.336 6.25286 9.68198 6 9 6C8.31801 6 7.66396 6.25286 7.18173 6.70294C6.69949 7.15303 6.42857 7.76348 6.42857 8.4C6.42857 9.03652 6.69949 9.64697 7.18173 10.0971C7.66396 10.5471 8.31801 10.8 9 10.8Z" fill="#FEFEFE"/>
</svg>
