<svg width="30" height="30" viewBox="0 0 30 30" fill="none" xmlns="http://www.w3.org/2000/svg">
<path d="M29.8422 0.407076C29.83 0.347797 29.8011 0.293235 29.759 0.249787C29.7169 0.206338 29.6633 0.175803 29.6045 0.161762C25.6823 -0.79805 16.6199 2.62228 11.71 7.53461C10.8343 8.40404 10.0359 9.34821 9.32402 10.3564C7.80993 10.2224 6.29585 10.3343 5.00543 10.8973C1.36452 12.5012 0.304463 16.6863 0.0091462 18.4867C-0.00760472 18.5852 -0.00128627 18.6863 0.0276044 18.782C0.0564951 18.8776 0.10717 18.9653 0.175644 19.0381C0.244118 19.1108 0.328523 19.1667 0.422222 19.2013C0.51592 19.2358 0.616356 19.2482 0.71563 19.2373L6.56237 18.5919C6.56653 19.0331 6.59313 19.4738 6.64206 19.9123C6.67148 20.2168 6.80653 20.5014 7.02376 20.7166L9.28786 22.9774C9.50311 23.1945 9.78731 23.3296 10.0914 23.3594C10.5271 23.4082 10.9649 23.4348 11.4033 23.4392L10.7618 29.2839C10.7511 29.3832 10.7635 29.4837 10.7981 29.5774C10.8327 29.6711 10.8885 29.7555 10.9612 29.824C11.0338 29.8925 11.1213 29.9432 11.2169 29.9722C11.3124 30.0012 11.4133 30.0076 11.5118 29.991C13.3071 29.7028 17.4958 28.6418 19.0889 24.9976C19.6514 23.706 19.7666 22.1979 19.6367 20.6898C20.6464 19.9772 21.5922 19.1779 22.4633 18.301C27.3886 13.396 30.7864 4.52783 29.8422 0.407076ZM17.5494 12.4496C17.0996 11.9998 16.7933 11.4265 16.6691 10.8024C16.5449 10.1782 16.6084 9.53124 16.8516 8.94324C17.0949 8.35525 17.5068 7.85266 18.0355 7.49905C18.5641 7.14544 19.1857 6.9567 19.8215 6.9567C20.4573 6.9567 21.0789 7.14544 21.6075 7.49905C22.1361 7.85266 22.5481 8.35525 22.7914 8.94324C23.0346 9.53124 23.0981 10.1782 22.9739 10.8024C22.8497 11.4265 22.5434 11.9998 22.0936 12.4496C21.7954 12.7485 21.4412 12.9857 21.0513 13.1475C20.6615 13.3093 20.2436 13.3926 19.8215 13.3926C19.3994 13.3926 18.9815 13.3093 18.5916 13.1475C18.2018 12.9857 17.8476 12.7485 17.5494 12.4496Z" fill="#141414"/>
</svg>
