<svg width="30" height="30" viewBox="0 0 30 30" fill="none" xmlns="http://www.w3.org/2000/svg">
<path d="M15.6999 0.793471L15.833 0.801779H20.5345L20.643 0.795548C21.2258 0.730901 21.814 0.735083 22.3958 0.80801C23.1755 0.846492 23.9361 1.06531 24.6196 1.44773C25.9097 2.04176 27.0359 2.99926 27.8386 4.2517C28.5784 5.40263 28.9969 6.73543 29.0496 8.10838C29.1022 9.48132 28.787 10.8431 28.1375 12.0488L21.5542 5.28605C21.4588 5.18843 21.3453 5.11099 21.2201 5.05822C21.095 5.00545 20.9608 4.97841 20.8253 4.97865H18.0998C17.8766 4.97835 17.6595 5.05201 17.4814 5.18843L13.083 8.56773C12.814 8.77375 12.5035 8.91689 12.1736 8.98689C11.8437 9.05688 11.5027 9.05201 11.1749 8.9726C10.8471 8.8932 10.5407 8.74124 10.2776 8.52761C10.0145 8.31398 9.80122 8.04397 9.65308 7.73693C9.42633 7.26256 9.36893 6.72308 9.49067 6.21056C9.61242 5.69805 9.90576 5.24428 10.3206 4.92673L15.6999 0.793471ZM7.51529 19.1854L7.48663 19.2124L5.92424 20.791L5.89762 20.8159C5.66509 21.0369 5.35699 21.1576 5.03835 21.1526C4.71972 21.1476 4.41548 21.0172 4.18985 20.7889C4.07562 20.6748 3.98491 20.5389 3.92298 20.3889C3.86106 20.239 3.82917 20.0781 3.82917 19.9155C3.82917 19.7529 3.86106 19.592 3.92298 19.442C3.98491 19.2921 4.07562 19.1561 4.18985 19.0421L5.75428 17.4657C5.98456 17.2329 6.2964 17.1022 6.62148 17.1022C6.94656 17.1022 7.25839 17.2329 7.48867 17.4657C7.95964 17.9392 7.96783 18.7015 7.51529 19.1854ZM7.34943 22.2802C6.89894 22.7641 6.90713 23.5264 7.37605 23.9999C7.60633 24.2327 7.91816 24.3634 8.24325 24.3634C8.56833 24.3634 8.88016 24.2327 9.11044 23.9999L10.6749 22.4235C10.8032 22.2944 10.9015 22.1379 10.9625 21.9653C11.0235 21.7927 11.0457 21.6085 11.0274 21.4261C11.0092 21.2437 10.9509 21.0678 10.857 20.9112C10.763 20.7545 10.6357 20.6212 10.4844 20.5209C10.2543 20.3668 9.97966 20.2956 9.70479 20.319C9.42993 20.3423 9.17081 20.4588 8.96915 20.6497L8.94048 20.6767L7.3781 22.2532L7.34943 22.2802ZM3.6595 14.9026C3.77373 15.0167 3.86445 15.1526 3.92637 15.3025C3.98829 15.4525 4.02018 15.6134 4.02018 15.776C4.02018 15.9386 3.98829 16.0995 3.92637 16.2495C3.86445 16.3994 3.77373 16.5354 3.6595 16.6494L2.09507 18.2258C1.86479 18.4586 1.55296 18.5893 1.22788 18.5893C0.902793 18.5893 0.590961 18.4586 0.36068 18.2258C0.246452 18.1118 0.155735 17.9759 0.0938125 17.8259C0.0318901 17.676 0 17.515 0 17.3525C0 17.1899 0.0318901 17.0289 0.0938125 16.879C0.155735 16.7291 0.246452 16.5931 0.36068 16.4791L1.92511 14.9005C2.15539 14.6678 2.46722 14.5371 2.79231 14.5371C3.11739 14.5371 3.42922 14.6678 3.6595 14.9005M13.8611 23.8857C13.9753 23.9997 14.066 24.1357 14.1279 24.2856C14.1899 24.4356 14.2218 24.5965 14.2218 24.7591C14.2218 24.9217 14.1899 25.0826 14.1279 25.2325C14.066 25.3825 13.9753 25.5184 13.8611 25.6325L12.2966 27.211C12.0664 27.4437 11.7545 27.5744 11.4294 27.5744C11.1044 27.5744 10.7925 27.4437 10.5622 27.211C10.3668 27.0157 10.2427 26.7588 10.2103 26.4825C10.1779 26.2062 10.2392 25.9269 10.3841 25.6906L10.3902 25.6823C10.4392 25.6026 10.4969 25.5287 10.5622 25.4622L12.1267 23.8857C12.357 23.653 12.6688 23.5223 12.9939 23.5223C13.319 23.5223 13.6308 23.653 13.8611 23.8857ZM3.21311 3.68052C4.35168 2.5335 5.75183 1.68937 7.28928 1.22305C8.82672 0.75673 10.4539 0.682656 12.0263 1.0074L9.08382 3.27135C8.63278 3.61799 8.25375 4.05164 7.9685 4.54737C7.68325 5.0431 7.49741 5.59113 7.42167 6.15996C7.34594 6.72878 7.38179 7.30718 7.52718 7.8619C7.67257 8.41662 7.92462 8.93672 8.26884 9.39231C8.96512 10.3135 9.9924 10.9179 11.1264 11.0736C12.2605 11.2292 13.4092 10.9235 14.3218 10.2231L18.4458 7.05567H20.3072L24.2756 11.0539L24.2838 11.0435L27.5765 14.427L27.6256 14.4748L29.3969 16.2714C29.7722 16.6565 29.9878 17.1728 29.9995 17.7142C30.0112 18.2556 29.8181 18.781 29.4597 19.1825C29.1014 19.5839 28.6052 19.831 28.0729 19.8728C27.5406 19.9147 27.0127 19.7483 26.5977 19.4077L26.4482 19.2581L26.3376 19.1605L24.5971 17.395C24.4051 17.2 24.1446 17.0904 23.8729 17.0902C23.6012 17.09 23.3406 17.1993 23.1484 17.394C22.9561 17.5887 22.848 17.8529 22.8478 18.1285C22.8476 18.4041 22.9553 18.6685 23.1473 18.8635L24.9943 20.737C25.0653 20.8062 25.137 20.8733 25.2093 20.9384L25.2708 21.0007C25.5363 21.2698 25.6856 21.6349 25.6858 22.0157C25.686 22.3964 25.5371 22.7616 25.2718 23.031C25.0065 23.3004 24.6466 23.4518 24.2712 23.452C23.8958 23.4522 23.5358 23.3011 23.2702 23.0321L22.9978 22.7579C22.8538 22.6122 22.6703 22.5134 22.4706 22.4739C22.2709 22.4345 22.0642 22.4563 21.8768 22.5365C21.6894 22.6167 21.5298 22.7518 21.4184 22.9244C21.307 23.097 21.2488 23.2993 21.2512 23.5056C21.2485 23.6452 21.2736 23.7839 21.3249 23.9135C21.3763 24.043 21.4529 24.1607 21.5501 24.2596L21.9085 24.623C22.0285 24.7448 22.1238 24.8894 22.1888 25.0485C22.2537 25.2077 22.2872 25.3782 22.2872 25.5504C22.2872 25.7227 22.2537 25.8932 22.1888 26.0523C22.1238 26.2114 22.0285 26.356 21.9085 26.4778C21.7884 26.5996 21.6459 26.6962 21.489 26.7621C21.3321 26.828 21.164 26.862 20.9942 26.862C20.8244 26.862 20.6562 26.828 20.4994 26.7621C20.3425 26.6962 20.2 26.5996 20.0799 26.4778L19.8976 26.2909C19.8353 26.2173 19.7704 26.1459 19.7031 26.077L19.3693 25.7384C19.1762 25.5492 18.9176 25.4446 18.6492 25.4469C18.3807 25.4493 18.1239 25.5585 17.9341 25.751C17.7443 25.9436 17.6366 26.2041 17.6343 26.4764C17.6319 26.7487 17.7351 27.011 17.9216 27.2068L18.1715 27.4602C18.2028 27.5018 18.237 27.5426 18.2738 27.5828L18.3742 27.6825C18.5784 27.9513 18.675 28.2884 18.6446 28.6263C18.6142 28.9643 18.4591 29.2781 18.2103 29.505C17.9615 29.7318 17.6374 29.855 17.3029 29.8498C16.9684 29.8447 16.6482 29.7115 16.4063 29.477L14.6351 27.7843L15.3149 27.0988C15.6192 26.793 15.8607 26.429 16.0255 26.0279C16.1903 25.6269 16.2751 25.1967 16.2751 24.7622C16.2751 24.3277 16.1903 23.8975 16.0255 23.4965C15.8607 23.0954 15.6192 22.7314 15.3149 22.4256C14.7216 21.8259 13.9243 21.4796 13.087 21.4577C13.0644 20.6127 12.7211 19.8091 12.1287 19.2145C11.5359 18.6154 10.7395 18.2691 9.90289 18.2466C9.87966 17.4013 9.53563 16.5977 8.94253 16.0034C8.56356 15.6194 8.09752 15.3354 7.58524 15.1764C7.07296 15.0175 6.53006 14.9884 6.0041 15.0916C5.87064 14.4649 5.5613 13.8907 5.11336 13.4383C4.5364 12.8589 3.76896 12.5159 2.95809 12.4749C2.14722 12.4339 1.34994 12.6978 0.719025 13.2161C0.261139 11.5453 0.251271 9.78082 0.69044 8.10488C1.12961 6.42893 2.00189 4.90228 3.2172 3.6826" fill="#141414"/>
</svg>
